{"title":"War Horse (2011) BDRip Xvid NL subs","uid":7104380,"size":1574931114,"categoryP":"video","categoryS":"movies","magnet":"?xt=urn:btih:b1634a4cf89888f7c2db0ed123babd33dbdbd364&amp;dn=War+Horse+%282011%29+BDRip+Xvid+NL+subs&amp;tr=udp%3A%2F%2Ftracker.openbittorrent.com%3A80&amp;tr=udp%3A%2F%2Fopen.demonii.com%3A1337&amp;tr=udp%3A%2F%2Ftracker.coppersurfer.tk%3A6969&amp;tr=udp%3A%2F%2Fexodus.desync.com%3A6969","seeders":0,"leechers":0,"uploader":"AppleCandy","files":1,"time":1331816691,"description":"Video\nID                                       : 0\nFormat                                   : MPEG-4 Visual\nFormat profile                           : Simple@L1\nFormat settings, BVOP                    : No\nFormat settings, QPel                    : No\nFormat settings, GMC                     : No warppoints\nFormat settings, Matrix                  : Default (H.263)\nCodec ID                                 : XVID\nCodec ID/Hint                            : XviD\nDuration                                 : 2h 26mn\nBit rate                                 : 38.3 Kbps\nWidth                                    : 720 pixels\nHeight                                   : 352 pixels\nDisplay aspect ratio                     : 2.045\nFrame rate                               : 23.976 fps\nColor space                              : YUV\nChroma subsampling                       : 4:2:0\nBit depth                                : 8 bits\nScan type                                : Progressive\nCompression mode                         : Lossy\nBits/(Pixel*Frame)                       : 0.006\nStream size                              : 40.2 MiB (3%)\nWriting library                          : Lavc52.62.0\n\nAudio\nID                                       : 1\nFormat                                   : AC-3\nFormat/Info                              : Audio Coding 3\nCodec ID                                 : 2000\nDuration                                 : 2h 26mn\nBit rate mode                            : Constant\nBit rate                                 : 448 Kbps\nChannel(s)                               : 6 channels\nSampling rate                            : 48.0 KHz\nCompression mode                         : Lossy\nStream size                              : 470 MiB (31%)\nAlignment                                : Aligned on interleaves","torrent":{"xt":"urn:btih:b1634a4cf89888f7c2db0ed123babd33dbdbd364","amp;dn":"War+Horse+%282011%29+BDRip+Xvid+NL+subs","amp;tr":["udp%3A%2F%2Ftracker.openbittorrent.com%3A80","udp%3A%2F%2Fopen.demonii.com%3A1337","udp%3A%2F%2Ftracker.coppersurfer.tk%3A6969","udp%3A%2F%2Fexodus.desync.com%3A6969"],"infoHash":"b1634a4cf89888f7c2db0ed123babd33dbdbd364","infoHashBuffer":{"type":"Buffer","data":[177,99,74,76,248,152,136,247,194,219,14,209,35,186,189,51,219,219,211,100]},"announce":[],"urlList":[]}}